<svg width="100" height="100" viewBox="0 0 100 100" fill="none" xmlns="http://www.w3.org/2000/svg">
<path d="M0 50V100H50H100V50V0H50H0V50Z" fill="#007ACC"/>
<path d="M22.1132 50.3318L22.0815 54.427L28.5894 54.427H35.0974V72.9191V91.4111H39.7005H44.3037V72.9191L44.3037 54.427H50.8116H57.3196V50.4111C57.3196 48.1889 57.272 46.3318 57.2085 46.2841C57.1608 46.2207 49.2402 46.1889 39.637 46.2048L22.1609 46.2524L22.1132 50.3318Z" fill="white"/>
<path d="M80.6906 46.1361C83.2302 46.771 85.1668 47.898 86.9445 49.7393C87.8652 50.7234 89.2302 52.5171 89.3414 52.9456C89.3731 53.0726 85.0239 55.9932 82.389 57.6282C82.2937 57.6917 81.9128 57.279 81.4842 56.644C80.1985 54.771 78.8493 53.9615 76.7858 53.8186C73.754 53.6123 71.8017 55.1996 71.8175 57.8504C71.8175 58.6282 71.9287 59.0885 72.2461 59.7234C72.9128 61.1044 74.1509 61.9298 78.0398 63.6123C85.1985 66.6917 88.262 68.7234 90.1668 71.6123C92.2937 74.8345 92.7699 79.9774 91.3255 83.8028C89.7382 87.9615 85.8017 90.7869 80.262 91.7234C78.5477 92.025 74.4842 91.9774 72.6429 91.644C68.6271 90.9298 64.8175 88.9456 62.4683 86.3425C61.5477 85.3266 59.7541 82.6758 59.8652 82.4853C59.9128 82.4218 60.3255 82.1679 60.7858 81.898C61.2302 81.644 62.9128 80.6758 64.5001 79.7552L67.3731 78.0885L67.9763 78.9774C68.8175 80.2631 70.6588 82.025 71.7699 82.6123C74.9604 84.2948 79.3414 84.0567 81.5001 82.1202C82.4207 81.279 82.8017 80.4059 82.8017 79.1202C82.8017 77.9615 82.6588 77.4536 82.0556 76.5806C81.2779 75.4694 79.6906 74.5329 75.1826 72.5805C70.0239 70.3583 67.8017 68.9774 65.7699 66.7869C64.5953 65.5171 63.4842 63.4853 63.0239 61.7869C62.6429 60.3742 62.5477 56.8345 62.8493 55.4059C63.9128 50.4218 67.6747 46.9456 73.1033 45.9139C74.8652 45.5806 78.9604 45.7075 80.6906 46.1361Z" fill="white"/>
</svg>
